{
	"nodes":[{
		"name":"Sphere_Sphere.002",
		"children":[1,
		2,
		3,
		4]
	},
	{
		"name":"Sphere_Sphere.002-Material.009",
		"mesh":0
	},
	{
		"name":"Sphere_Sphere.002-Material.008",
		"mesh":1
	},
	{
		"name":"Sphere_Sphere.002-Material.010",
		"mesh":2
	},
	{
		"name":"Sphere_Sphere.002-Material.005",
		"mesh":3
	}],
	"asset":{
		"version":"2.0",
		"generator":"Created using the official Cinema 4D glTF Exporter 1.000x284978"
	},
	"scenes":[{
		"nodes":[0]
	}],
	"meshes":[{
		"name":"Sphere_Sphere.002-Material.009",
		"primitives":[{
			"attributes":{
				"TEXCOORD_0":3,
				"POSITION":1,
				"NORMAL":2
			},
			"indices":0,
			"material":0
		}]
	},
	{
		"name":"Sphere_Sphere.002-Material.008",
		"primitives":[{
			"attributes":{
				"TEXCOORD_0":7,
				"POSITION":5,
				"NORMAL":6
			},
			"indices":4,
			"material":1
		}]
	},
	{
		"name":"Sphere_Sphere.002-Material.010",
		"primitives":[{
			"attributes":{
				"TEXCOORD_0":11,
				"POSITION":9,
				"NORMAL":10
			},
			"indices":8,
			"material":2
		}]
	},
	{
		"name":"Sphere_Sphere.002-Material.005",
		"primitives":[{
			"attributes":{
				"TEXCOORD_0":15,
				"POSITION":13,
				"NORMAL":14
			},
			"indices":12,
			"material":3
		}]
	}],
	"accessors":[{
		"bufferView":0,
		"type":"SCALAR",
		"componentType":5123,
		"count":3684,
		"byteOffset":0,
		"min":[0],
		"max":[3641]
	},
	{
		"bufferView":1,
		"type":"VEC3",
		"componentType":5126,
		"count":3642,
		"byteOffset":0,
		"min":[-1.0007599592208863,
		-0.9820629954338074,
		-1.0008840560913087],
		"max":[0.9994720220565796,
		1.0008169412612916,
		0.999701976776123]
	},
	{
		"bufferView":1,
		"type":"VEC3",
		"componentType":5126,
		"count":3642,
		"byteOffset":12,
		"min":[-0.9995312690734863,
		-0.9734063148498535,
		-0.9939063191413879],
		"max":[0.9996875524520874,
		0.9981563091278076,
		1.0]
	},
	{
		"bufferView":1,
		"type":"VEC2",
		"componentType":5126,
		"count":3642,
		"byteOffset":24,
		"min":[0.0,
		0.012924998998641968],
		"max":[1.0,
		0.9391279220581055]
	},
	{
		"bufferView":2,
		"type":"SCALAR",
		"componentType":5123,
		"count":2565,
		"byteOffset":0,
		"min":[0],
		"max":[2564]
	},
	{
		"bufferView":3,
		"type":"VEC3",
		"componentType":5126,
		"count":2565,
		"byteOffset":0,
		"min":[-1.0448789596557618,
		-0.9149450063705444,
		-1.0546079874038697],
		"max":[0.9240829944610596,
		1.039473056793213,
		1.0592859983444214]
	},
	{
		"bufferView":3,
		"type":"VEC3",
		"componentType":5126,
		"count":2565,
		"byteOffset":12,
		"min":[-0.9910625219345093,
		-0.8237813115119934,
		-0.9998437762260437],
		"max":[0.8456562757492065,
		0.9891563057899475,
		0.9983750581741333]
	},
	{
		"bufferView":3,
		"type":"VEC2",
		"componentType":5126,
		"count":2565,
		"byteOffset":24,
		"min":[0.0022299999836832287,
		0.03932199627161026],
		"max":[0.999210000038147,
		0.8271379470825195]
	},
	{
		"bufferView":4,
		"type":"SCALAR",
		"componentType":5123,
		"count":5421,
		"byteOffset":0,
		"min":[0],
		"max":[2604]
	},
	{
		"bufferView":5,
		"type":"VEC3",
		"componentType":5126,
		"count":2605,
		"byteOffset":0,
		"min":[-1.0448789596557618,
		-0.9820629954338074,
		-1.0546079874038697],
		"max":[0.9240829944610596,
		1.039473056793213,
		1.0592859983444214]
	},
	{
		"bufferView":5,
		"type":"VEC3",
		"componentType":5126,
		"count":2605,
		"byteOffset":12,
		"min":[-0.999000072479248,
		-0.9918438196182251,
		-0.9970625638961792],
		"max":[0.9977188110351563,
		0.9973750710487366,
		1.0]
	},
	{
		"bufferView":5,
		"type":"VEC2",
		"componentType":5126,
		"count":2605,
		"byteOffset":24,
		"min":[0.0,
		0.03932199627161026],
		"max":[0.999210000038147,
		0.9391279220581055]
	},
	{
		"bufferView":6,
		"type":"SCALAR",
		"componentType":5123,
		"count":498,
		"byteOffset":0,
		"min":[0],
		"max":[427]
	},
	{
		"bufferView":7,
		"type":"VEC3",
		"componentType":5126,
		"count":428,
		"byteOffset":0,
		"min":[-0.41148000955581667,
		-1.0673099756240845,
		-0.4816339910030365],
		"max":[0.305961012840271,
		-0.8746629953384399,
		0.43573200702667239]
	},
	{
		"bufferView":7,
		"type":"VEC3",
		"componentType":5126,
		"count":428,
		"byteOffset":12,
		"min":[-0.9855625629425049,
		-0.999625027179718,
		-0.9774063229560852],
		"max":[0.9502500295639038,
		0.4312500059604645,
		0.928156316280365]
	},
	{
		"bufferView":7,
		"type":"VEC2",
		"componentType":5126,
		"count":428,
		"byteOffset":24,
		"min":[0.0062409997917711739,
		0.839946985244751],
		"max":[0.9985780119895935,
		0.9924459457397461]
	}],
	"bufferViews":[{
		"buffer":0,
		"byteOffset":0,
		"byteLength":7368,
		"target":34963
	},
	{
		"buffer":0,
		"byteOffset":7368,
		"byteStride":32,
		"byteLength":116544,
		"target":34962
	},
	{
		"buffer":1,
		"byteOffset":0,
		"byteLength":5130,
		"target":34963
	},
	{
		"buffer":1,
		"byteOffset":5132,
		"byteStride":32,
		"byteLength":82080,
		"target":34962
	},
	{
		"buffer":2,
		"byteOffset":0,
		"byteLength":10842,
		"target":34963
	},
	{
		"buffer":2,
		"byteOffset":10844,
		"byteStride":32,
		"byteLength":83360,
		"target":34962
	},
	{
		"buffer":3,
		"byteOffset":0,
		"byteLength":996,
		"target":34963
	},
	{
		"buffer":3,
		"byteOffset":996,
		"byteStride":32,
		"byteLength":13696,
		"target":34962
	}],
	"buffers":[{
		"uri":"data:application/octet-stream;base64,",
		"byteLength":123912
	},
	{
		"uri":"data:application/octet-stream;base64,",
		"byteLength":87212
	},
	{
		"uri":"data:application/octet-stream;base64,",
		"byteLength":94204
	},
	{
		"uri":"data:application/octet-stream;base64,",
		"byteLength":14692
	}],
	"materials":[{
		"name":"Material.009",
		"doubleSided":false,
		"pbrMetallicRoughness":{
			"baseColorFactor":[0.3186666679382324,
			0.5557921590805055,
			0.9372549057006836,
			1.0],
			"metallicFactor":0.0,
			"roughnessFactor":0.5
		},
		"emissiveFactor":[0.0,
		0.0,
		0.0],
		"alphaMode":"OPAQUE"
	},
	{
		"name":"Material.008",
		"doubleSided":false,
		"pbrMetallicRoughness":{
			"baseColorFactor":[0.24921568989753718,
			0.8039215803146362,
			0.3046862789392467,
			1.0],
			"metallicFactor":0.0,
			"roughnessFactor":0.5
		},
		"emissiveFactor":[0.0,
		0.0,
		0.0],
		"alphaMode":"OPAQUE"
	},
	{
		"name":"Material.010",
		"doubleSided":false,
		"pbrMetallicRoughness":{
			"baseColorFactor":[0.16720000000000005,
			0.44,
			0.22630666666666697,
			1.0],
			"metallicFactor":0.0,
			"roughnessFactor":0.5
		},
		"emissiveFactor":[0.0,
		0.0,
		0.0],
		"alphaMode":"OPAQUE"
	},
	{
		"name":"Material.005",
		"doubleSided":false,
		"pbrMetallicRoughness":{
			"baseColorFactor":[0.886274516582489,
			0.886274516582489,
			0.886274516582489,
			1.0],
			"metallicFactor":0.0,
			"roughnessFactor":0.5
		},
		"emissiveFactor":[0.0,
		0.0,
		0.0],
		"alphaMode":"OPAQUE"
	}]
}